<svg xmlns="http://www.w3.org/2000/svg" version="1.1" xmlns:xlink="http://www.w3.org/1999/xlink" xmlns:svgjs="http://svgjs.com/svgjs" width="512" height="512" x="0" y="0" viewBox="0 0 464.205 464.205" style="enable-background:new 0 0 512 512" xml:space="preserve" class=""><g><g xmlns="http://www.w3.org/2000/svg"><g id="grip-solid-horizontal_1_"><path d="m435.192 406.18h-406.179c-16.024 0-29.013-12.99-29.013-29.013s12.989-29.013 29.013-29.013h406.18c16.023 0 29.013 12.99 29.013 29.013-.001 16.023-12.99 29.013-29.014 29.013z" fill="#ffffff" data-original="#000000" class=""></path><path d="m435.192 261.115h-406.179c-16.024 0-29.013-12.989-29.013-29.012s12.989-29.013 29.013-29.013h406.18c16.023 0 29.013 12.989 29.013 29.013s-12.99 29.012-29.014 29.012z" fill="#ffffff" data-original="#000000" class=""></path><path d="m435.192 116.051h-406.179c-16.024 0-29.013-12.989-29.013-29.013s12.989-29.013 29.013-29.013h406.18c16.023 0 29.013 12.989 29.013 29.013s-12.99 29.013-29.014 29.013z" fill="#ffffff" data-original="#000000" class=""></path></g></g></g></svg>