<svg xmlns="http://www.w3.org/2000/svg" version="1.1" xmlns:xlink="http://www.w3.org/1999/xlink" xmlns:svgjs="http://svgjs.com/svgjs" width="512" height="512" x="0" y="0" viewBox="0 0 512.001 512.001" style="enable-background:new 0 0 512 512" xml:space="preserve" class=""><g>
<g xmlns="http://www.w3.org/2000/svg">
	<g>
		<circle cx="72.05" cy="439.322" r="15.002" fill="#ffffff" data-original="#000000" class=""></circle>
	</g>
</g>
<g xmlns="http://www.w3.org/2000/svg">
	<g>
		<path d="M507.568,216.527L379.661,89.23c-4.019-4-9.949-5.392-15.326-3.599L329.15,97.359l11.729-35.184    c1.797-5.391,0.394-11.335-3.625-15.352L294.822,4.39c-6.246-6.248-16.582-5.781-22.219,1.108    c-4.104,5.016-151.47,185.129-156.557,191.347c-24.506,29.952-22.35,73.175,5.016,100.54l13.017,13.017L28.664,389.463    c-31.023,23.266-38.932,68.899-13.378,98.863c28.057,32.903,79.023,31.19,104.775-3.144l80.912-107.884l13.017,13.017    c27.387,27.387,70.61,29.502,100.522,5.03L506.47,238.787C513.364,233.161,513.869,222.796,507.568,216.527z M295.528,372.107    c-17.971,14.703-43.905,13.41-60.324-3.009l-25.248-25.248c-6.458-6.458-17.14-5.685-22.609,1.607L96.055,467.179    c-14.161,18.883-42.3,20.019-57.942,1.677c-13.915-16.316-9.113-42.142,8.551-55.39l119.253-89.44    c7.305-5.479,8.053-16.164,1.606-22.61l-25.248-25.248c-16.419-16.419-17.712-42.353-3.009-60.324l12.398-15.152l159.038,159.037    L295.528,372.107z M334.074,340.669L170.76,177.355l19.095-23.338l167.591,167.591L334.074,340.669z M380.816,302.547    L208.949,130.68l76.379-93.351l24.153,24.154l-18.284,54.853c-3.906,11.716,7.281,22.876,18.977,18.977l54.876-18.292    l109.556,109.032L380.816,302.547z" fill="#ffffff" data-original="#000000" class=""></path>
	</g>
</g>
<g xmlns="http://www.w3.org/2000/svg">
</g>
<g xmlns="http://www.w3.org/2000/svg">
</g>
<g xmlns="http://www.w3.org/2000/svg">
</g>
<g xmlns="http://www.w3.org/2000/svg">
</g>
<g xmlns="http://www.w3.org/2000/svg">
</g>
<g xmlns="http://www.w3.org/2000/svg">
</g>
<g xmlns="http://www.w3.org/2000/svg">
</g>
<g xmlns="http://www.w3.org/2000/svg">
</g>
<g xmlns="http://www.w3.org/2000/svg">
</g>
<g xmlns="http://www.w3.org/2000/svg">
</g>
<g xmlns="http://www.w3.org/2000/svg">
</g>
<g xmlns="http://www.w3.org/2000/svg">
</g>
<g xmlns="http://www.w3.org/2000/svg">
</g>
<g xmlns="http://www.w3.org/2000/svg">
</g>
<g xmlns="http://www.w3.org/2000/svg">
</g>
</g></svg>