<svg xmlns="http://www.w3.org/2000/svg" version="1.1" xmlns:xlink="http://www.w3.org/1999/xlink" xmlns:svgjs="http://svgjs.com/svgjs" width="512" height="512" x="0" y="0" viewBox="0 0 512.009 512.009" style="enable-background:new 0 0 512 512" xml:space="preserve" class=""><g><path xmlns="http://www.w3.org/2000/svg" d="m139.008 160.45-10.027 20.316-28.329-4.117-14.778-29.942c-5.263-10.667-20.486-10.664-25.747 0l-14.779 29.943-33.043 4.801c-11.77 1.71-16.473 16.187-7.957 24.487l23.911 23.309-5.645 32.909c-2.021 11.768 10.347 20.644 20.83 15.135l29.555-15.538 24.722 12.997-4.639 27.047c-2.229 12.981 11.415 22.927 23.102 16.785l36.674-19.28c.267-.14.586-.142.856 0l33.478 17.599-6.008 35.025c-2.567 14.962 13.156 26.246 26.484 19.242l34.327-18.046c3.666-1.928 5.076-6.462 3.148-10.129s-6.465-5.076-10.129-3.148l-34.327 18.046c-2.395 1.26-5.179-.753-4.721-3.428l8.715-50.802c1.278-7.45-.557-13.143-5.021-17.493l-37.881-36.925c-1.958-1.908-.867-5.159 1.803-5.548l52.352-7.607c5.948-.865 11.086-4.599 13.742-9.985 4.782-9.688 18.633-37.753 23.412-47.437.778-1.578 2.162-1.813 2.917-1.813s2.139.235 2.917 1.813l23.411 47.437c2.657 5.384 7.794 9.121 13.744 9.985l52.35 7.607c2.6.378 3.787 3.613 1.803 5.548l-37.88 36.924c-4.34 4.229-6.258 10.285-5.25 16.158 4.118 24.011 4.704 27.428 8.942 52.139.457 2.672-2.322 4.69-4.72 3.428l-34.327-18.046c-3.667-1.927-8.201-.518-10.129 3.148-1.928 3.667-.518 8.201 3.148 10.129l34.327 18.046c13.387 7.036 29.04-4.341 26.483-19.241l-6.007-35.025 33.479-17.6c.267-.141.587-.141.855.001l36.673 19.279c11.656 6.131 25.337-3.76 23.103-16.784l-4.639-27.047 24.721-12.997 29.556 15.538c10.508 5.525 22.845-3.388 20.83-15.134l-2.994-17.451c-.699-4.083-4.569-6.825-8.66-6.124-4.082.701-6.824 4.578-6.123 8.66l2.773 16.166-28.7-15.088c-4.186-2.2-9.181-2.2-13.362 0l-17.381 9.138 26.91-26.231c9.447-9.206 4.229-25.262-8.824-27.158l-41.001-5.958c-.301-.044-.56-.232-.694-.504l-1.33-2.694 23.84-3.464c4.68-.679 8.722-3.617 10.811-7.854l14.351-29.076 14.35 29.076c2.092 4.239 6.134 7.175 10.811 7.854l32.088 4.663-11.423 11.134c-2.966 2.891-3.026 7.64-.136 10.605 2.894 2.966 7.641 3.028 10.606.136l12.355-12.044c8.517-8.299 3.813-22.776-7.956-24.487l-33.044-4.802-14.777-29.943c-5.266-10.665-20.485-10.664-25.748 0l-14.778 29.942-28.329 4.117-10.026-20.316c-5.838-11.83-22.72-11.827-28.557 0l-18.336 37.154c-.135.272-.394.46-.694.504l-37.481 5.447-15.561-31.529c-6.694-13.562-26.045-13.556-32.736 0l-15.561 31.529-37.482-5.447c-.301-.044-.561-.233-.694-.505l-18.336-37.152c-5.839-11.837-22.722-11.835-28.558-.007zm188.563 52.502c5.188-.754 9.67-4.01 11.989-8.71l18.336-37.153c.076-.154.254-.515.827-.515s.751.361.827.515c19.509 39.53 18.417 37.355 18.796 38.017 2.445 4.273 6.713 7.147 11.529 7.847l41.001 5.958c.757.111 1.084 1.013.511 1.573l-29.668 28.919c-3.753 3.657-5.466 8.925-4.58 14.094l7.004 40.836c.029.169.098.564-.366.901-.463.337-.819.15-.972.07l-36.671-19.278c-4.64-2.44-10.178-2.443-14.82-.001l-29.162 15.332c-.232-1.35-.351-1.768-.307-2.359.058-.783.399-1.528.974-2.089l37.881-36.924c10.802-10.533 4.875-28.955-10.117-31.134l-52.349-7.606c-1.989-.289-2.469-1.818-3.321-3.544zm-247.89 35.366c-4.183-2.2-9.179-2.2-13.361 0l-28.701 15.089 5.482-31.961c.798-4.659-.747-9.409-4.13-12.705l-23.219-22.633 32.089-4.663c4.676-.68 8.717-3.616 10.809-7.854l14.35-29.076 14.351 29.077c2.092 4.237 6.133 7.173 10.81 7.853l23.842 3.464-1.33 2.694c-.135.272-.394.46-.693.504l-41.002 5.958c-13.054 1.897-18.269 17.952-8.825 27.158l26.911 26.232zm74.431-81.23 18.337 37.155c2.32 4.7 6.803 7.956 11.988 8.708l32.658 4.746-.872 1.766c-.473.959-1.389 1.625-2.448 1.779l-52.351 7.606c-14.867 2.161-21.007 20.515-10.115 31.134l37.881 36.925c.798.778 1.124 1.781.893 3.135l-.226 1.312-29.161-15.33c-4.639-2.44-10.18-2.441-14.82-.001l-36.673 19.28c-.69.363-1.467-.198-1.338-.972l7.004-40.836c.887-5.167-.825-10.436-4.579-14.093l-29.669-28.92c-.561-.545-.26-1.459.511-1.573l41.002-5.958c5.192-.755 9.671-4.015 11.988-8.71 4.233-8.577 14.156-28.682 18.337-37.154.076-.154.254-.514.826-.514.573.001.751.361.827.515z" fill="#121e34" data-original="#000000" class=""></path></g></svg>